<svg aria-roledescription="er" role="graphics-document document" viewBox="0 0 225.13986206054688 601" style="max-width: 225.14px; background-color: white;" xmlns:xlink="http://www.w3.org/1999/xlink" xmlns="http://www.w3.org/2000/svg" width="100%" id="my-svg"><style>#my-svg{font-family:"trebuchet ms",verdana,arial,sans-serif;font-size:16px;fill:#000000;}#my-svg .error-icon{fill:#552222;}#my-svg .error-text{fill:#552222;stroke:#552222;}#my-svg .edge-thickness-normal{stroke-width:2px;}#my-svg .edge-thickness-thick{stroke-width:3.5px;}#my-svg .edge-pattern-solid{stroke-dasharray:0;}#my-svg .edge-pattern-dashed{stroke-dasharray:3;}#my-svg .edge-pattern-dotted{stroke-dasharray:2;}#my-svg .marker{fill:#000000;stroke:#000000;}#my-svg .marker.cross{stroke:#000000;}#my-svg svg{font-family:"trebuchet ms",verdana,arial,sans-serif;font-size:16px;}#my-svg .entityBox{fill:#cde498;stroke:#13540c;}#my-svg .attributeBoxOdd{fill:#ffffff;stroke:#13540c;}#my-svg .attributeBoxEven{fill:#f2f2f2;stroke:#13540c;}#my-svg .relationshipLabelBox{fill:hsl(78.1578947368, 58.4615384615%, 84.5098039216%);opacity:0.7;background-color:hsl(78.1578947368, 58.4615384615%, 84.5098039216%);}#my-svg .relationshipLabelBox rect{opacity:0.5;}#my-svg .relationshipLine{stroke:#000000;}#my-svg .entityTitleText{text-anchor:middle;font-size:18px;fill:#000000;}#my-svg #MD_PARENT_START{fill:#f5f5f5!important;stroke:#000000!important;stroke-width:1;}#my-svg #MD_PARENT_END{fill:#f5f5f5!important;stroke:#000000!important;stroke-width:1;}#my-svg :root{--mermaid-font-family:"trebuchet ms",verdana,arial,sans-serif;}</style><g/><defs><marker orient="auto" markerHeight="240" markerWidth="190" refY="7" refX="0" id="MD_PARENT_START"><path d="M 18,7 L9,13 L1,7 L9,1 Z"/></marker></defs><defs><marker orient="auto" markerHeight="28" markerWidth="20" refY="7" refX="19" id="MD_PARENT_END"><path d="M 18,7 L9,13 L1,7 L9,1 Z"/></marker></defs><defs><marker orient="auto" markerHeight="18" markerWidth="18" refY="9" refX="0" id="ONLY_ONE_START"><path d="M9,0 L9,18 M15,0 L15,18" fill="none" stroke="gray"/></marker></defs><defs><marker orient="auto" markerHeight="18" markerWidth="18" refY="9" refX="18" id="ONLY_ONE_END"><path d="M3,0 L3,18 M9,0 L9,18" fill="none" stroke="gray"/></marker></defs><defs><marker orient="auto" markerHeight="18" markerWidth="30" refY="9" refX="0" id="ZERO_OR_ONE_START"><circle r="6" cy="9" cx="21" fill="white" stroke="gray"/><path d="M9,0 L9,18" fill="none" stroke="gray"/></marker></defs><defs><marker orient="auto" markerHeight="18" markerWidth="30" refY="9" refX="30" id="ZERO_OR_ONE_END"><circle r="6" cy="9" cx="9" fill="white" stroke="gray"/><path d="M21,0 L21,18" fill="none" stroke="gray"/></marker></defs><defs><marker orient="auto" markerHeight="36" markerWidth="45" refY="18" refX="18" id="ONE_OR_MORE_START"><path d="M0,18 Q 18,0 36,18 Q 18,36 0,18 M42,9 L42,27" fill="none" stroke="gray"/></marker></defs><defs><marker orient="auto" markerHeight="36" markerWidth="45" refY="18" refX="27" id="ONE_OR_MORE_END"><path d="M3,9 L3,27 M9,18 Q27,0 45,18 Q27,36 9,18" fill="none" stroke="gray"/></marker></defs><defs><marker orient="auto" markerHeight="36" markerWidth="57" refY="18" refX="18" id="ZERO_OR_MORE_START"><circle r="6" cy="18" cx="48" fill="white" stroke="gray"/><path d="M0,18 Q18,0 36,18 Q18,36 0,18" fill="none" stroke="gray"/></marker></defs><defs><marker orient="auto" markerHeight="36" markerWidth="57" refY="18" refX="39" id="ZERO_OR_MORE_END"><circle r="6" cy="18" cx="9" fill="white" stroke="gray"/><path d="M21,18 Q39,0 57,18 Q39,36 21,18" fill="none" stroke="gray"/></marker></defs><path style="stroke: gray; fill: none;" marker-start="url(#ZERO_OR_MORE_START)" marker-end="url(#ZERO_OR_MORE_END)" d="M92.156,89L87.225,97.333C82.294,105.667,72.432,122.333,70.073,139C67.714,155.667,72.858,172.333,75.43,180.667L78.002,189" class="er relationshipLine"/><path style="stroke: gray; fill: none;" marker-start="url(#ZERO_OR_ONE_START)" marker-end="url(#ONLY_ONE_END)" d="M147.138,189L149.71,180.667C152.282,172.333,157.426,155.667,155.067,139C152.708,122.333,142.846,105.667,137.915,97.333L132.984,89" class="er relationshipLine"/><path style="stroke: gray; fill: none;" marker-start="url(#ZERO_OR_ONE_START)" marker-end="url(#ONLY_ONE_END)" d="M112.57,413L112.57,421.333C112.57,429.667,112.57,446.333,112.57,463C112.57,479.667,112.57,496.333,112.57,504.667L112.57,513" class="er relationshipLine"/><g transform="translate(62.48301696777344,513 )" id="entity-MeasureType-dd7908cd-fecb-5b9a-af42-656332273171"><rect height="68" width="100.173828125" y="0" x="0" class="er entityBox"/><text style="dominant-baseline: middle; text-anchor: middle; font-size: 12px;" transform="translate(50.0869140625,12)" y="0" x="0" id="text-entity-MeasureType-dd7908cd-fecb-5b9a-af42-656332273171" class="er entityLabel">MeasureType</text><rect height="22" width="50.0869140625" y="24" x="0" class="er attributeBoxOdd"/><text style="dominant-baseline: middle; font-size: 10.2px;" transform="translate(5,35)" y="0" x="0" id="text-entity-MeasureType-dd7908cd-fecb-5b9a-af42-656332273171-attr-1-type" class="er entityLabel">WATER</text><rect height="22" width="50.0869140625" y="24" x="50.0869140625" class="er attributeBoxOdd"/><text style="dominant-baseline: middle; font-size: 10.2px;" transform="translate(55.0869140625,35)" y="0" x="0" id="text-entity-MeasureType-dd7908cd-fecb-5b9a-af42-656332273171-attr-1-name" class="er entityLabel">WATER</text><rect height="22" width="50.0869140625" y="46" x="0" class="er attributeBoxEven"/><text style="dominant-baseline: middle; font-size: 10.2px;" transform="translate(5,57)" y="0" x="0" id="text-entity-MeasureType-dd7908cd-fecb-5b9a-af42-656332273171-attr-2-type" class="er entityLabel">GAS</text><rect height="22" width="50.0869140625" y="46" x="50.0869140625" class="er attributeBoxEven"/><text style="dominant-baseline: middle; font-size: 10.2px;" transform="translate(55.0869140625,57)" y="0" x="0" id="text-entity-MeasureType-dd7908cd-fecb-5b9a-af42-656332273171-attr-2-name" class="er entityLabel">GAS</text></g><g transform="translate(62.56993103027344,20 )" id="entity-Customer-7db3a251-ee0f-5d85-b53f-42db636cc6f9"><rect height="69" width="100" y="0" x="0" class="er entityBox"/><text style="dominant-baseline: middle; text-anchor: middle; font-size: 12px;" transform="translate(50,12)" y="0" x="0" id="text-entity-Customer-7db3a251-ee0f-5d85-b53f-42db636cc6f9" class="er entityLabel">Customer</text><rect height="23" width="40.002522786458336" y="24" x="0" class="er attributeBoxOdd"/><text style="dominant-baseline: middle; font-size: 10.2px;" transform="translate(5,35.5)" y="0" x="0" id="text-entity-Customer-7db3a251-ee0f-5d85-b53f-42db636cc6f9-attr-1-type" class="er entityLabel">String</text><rect height="23" width="34.812886555989586" y="24" x="40.002522786458336" class="er attributeBoxOdd"/><text style="dominant-baseline: middle; font-size: 10.2px;" transform="translate(45.002522786458336,35.5)" y="0" x="0" id="text-entity-Customer-7db3a251-ee0f-5d85-b53f-42db636cc6f9-attr-1-name" class="er entityLabel">id</text><rect height="23" width="25.184590657552082" y="24" x="74.81540934244792" class="er attributeBoxOdd"/><text style="dominant-baseline: middle; font-size: 10.2px;" transform="translate(79.81540934244792,35.5)" y="0" x="0" id="text-entity-Customer-7db3a251-ee0f-5d85-b53f-42db636cc6f9-attr-1-comment" class="er entityLabel">🗝️</text><rect height="22" width="40.002522786458336" y="47" x="0" class="er attributeBoxEven"/><text style="dominant-baseline: middle; font-size: 10.2px;" transform="translate(5,58)" y="0" x="0" id="text-entity-Customer-7db3a251-ee0f-5d85-b53f-42db636cc6f9-attr-2-type" class="er entityLabel">String</text><rect height="22" width="34.812886555989586" y="47" x="40.002522786458336" class="er attributeBoxEven"/><text style="dominant-baseline: middle; font-size: 10.2px;" transform="translate(45.002522786458336,58)" y="0" x="0" id="text-entity-Customer-7db3a251-ee0f-5d85-b53f-42db636cc6f9-attr-2-name" class="er entityLabel">code</text><rect height="22" width="25.184590657552082" y="47" x="74.81540934244792" class="er attributeBoxEven"/><text style="dominant-baseline: middle; font-size: 10.2px;" transform="translate(79.81540934244792,58)" y="0" x="0" id="text-entity-Customer-7db3a251-ee0f-5d85-b53f-42db636cc6f9-attr-2-comment" class="er entityLabel"/></g><g transform="translate(20,189 )" id="entity-Measure-75e06086-7fb7-506d-b588-b29b5f3e2750"><rect height="224" width="185.13986206054688" y="0" x="0" class="er entityBox"/><text style="dominant-baseline: middle; text-anchor: middle; font-size: 12px;" transform="translate(92.56993103027344,12)" y="0" x="0" id="text-entity-Measure-75e06086-7fb7-506d-b588-b29b5f3e2750" class="er entityLabel">Measure</text><rect height="23" width="69.84768676757812" y="24" x="0" class="er attributeBoxOdd"/><text style="dominant-baseline: middle; font-size: 10.2px;" transform="translate(5,35.5)" y="0" x="0" id="text-entity-Measure-75e06086-7fb7-506d-b588-b29b5f3e2750-attr-1-type" class="er entityLabel">String</text><rect height="23" width="92.71405029296875" y="24" x="69.84768676757812" class="er attributeBoxOdd"/><text style="dominant-baseline: middle; font-size: 10.2px;" transform="translate(74.84768676757812,35.5)" y="0" x="0" id="text-entity-Measure-75e06086-7fb7-506d-b588-b29b5f3e2750-attr-1-name" class="er entityLabel">id</text><rect height="23" width="22.578125" y="24" x="162.56173706054688" class="er attributeBoxOdd"/><text style="dominant-baseline: middle; font-size: 10.2px;" transform="translate(167.56173706054688,35.5)" y="0" x="0" id="text-entity-Measure-75e06086-7fb7-506d-b588-b29b5f3e2750-attr-1-comment" class="er entityLabel">🗝️</text><rect height="22" width="69.84768676757812" y="47" x="0" class="er attributeBoxEven"/><text style="dominant-baseline: middle; font-size: 10.2px;" transform="translate(5,58)" y="0" x="0" id="text-entity-Measure-75e06086-7fb7-506d-b588-b29b5f3e2750-attr-2-type" class="er entityLabel">MeasureType</text><rect height="22" width="92.71405029296875" y="47" x="69.84768676757812" class="er attributeBoxEven"/><text style="dominant-baseline: middle; font-size: 10.2px;" transform="translate(74.84768676757812,58)" y="0" x="0" id="text-entity-Measure-75e06086-7fb7-506d-b588-b29b5f3e2750-attr-2-name" class="er entityLabel">measureType</text><rect height="22" width="22.578125" y="47" x="162.56173706054688" class="er attributeBoxEven"/><text style="dominant-baseline: middle; font-size: 10.2px;" transform="translate(167.56173706054688,58)" y="0" x="0" id="text-entity-Measure-75e06086-7fb7-506d-b588-b29b5f3e2750-attr-2-comment" class="er entityLabel"/><rect height="23" width="69.84768676757812" y="69" x="0" class="er attributeBoxOdd"/><text style="dominant-baseline: middle; font-size: 10.2px;" transform="translate(5,80.5)" y="0" x="0" id="text-entity-Measure-75e06086-7fb7-506d-b588-b29b5f3e2750-attr-3-type" class="er entityLabel">Int</text><rect height="23" width="92.71405029296875" y="69" x="69.84768676757812" class="er attributeBoxOdd"/><text style="dominant-baseline: middle; font-size: 10.2px;" transform="translate(74.84768676757812,80.5)" y="0" x="0" id="text-entity-Measure-75e06086-7fb7-506d-b588-b29b5f3e2750-attr-3-name" class="er entityLabel">measureValue</text><rect height="23" width="22.578125" y="69" x="162.56173706054688" class="er attributeBoxOdd"/><text style="dominant-baseline: middle; font-size: 10.2px;" transform="translate(167.56173706054688,80.5)" y="0" x="0" id="text-entity-Measure-75e06086-7fb7-506d-b588-b29b5f3e2750-attr-3-comment" class="er entityLabel">❓</text><rect height="22" width="69.84768676757812" y="92" x="0" class="er attributeBoxEven"/><text style="dominant-baseline: middle; font-size: 10.2px;" transform="translate(5,103)" y="0" x="0" id="text-entity-Measure-75e06086-7fb7-506d-b588-b29b5f3e2750-attr-4-type" class="er entityLabel">DateTime</text><rect height="22" width="92.71405029296875" y="92" x="69.84768676757812" class="er attributeBoxEven"/><text style="dominant-baseline: middle; font-size: 10.2px;" transform="translate(74.84768676757812,103)" y="0" x="0" id="text-entity-Measure-75e06086-7fb7-506d-b588-b29b5f3e2750-attr-4-name" class="er entityLabel">measureDateTime</text><rect height="22" width="22.578125" y="92" x="162.56173706054688" class="er attributeBoxEven"/><text style="dominant-baseline: middle; font-size: 10.2px;" transform="translate(167.56173706054688,103)" y="0" x="0" id="text-entity-Measure-75e06086-7fb7-506d-b588-b29b5f3e2750-attr-4-comment" class="er entityLabel"/><rect height="22" width="69.84768676757812" y="114" x="0" class="er attributeBoxOdd"/><text style="dominant-baseline: middle; font-size: 10.2px;" transform="translate(5,125)" y="0" x="0" id="text-entity-Measure-75e06086-7fb7-506d-b588-b29b5f3e2750-attr-5-type" class="er entityLabel">String</text><rect height="22" width="92.71405029296875" y="114" x="69.84768676757812" class="er attributeBoxOdd"/><text style="dominant-baseline: middle; font-size: 10.2px;" transform="translate(74.84768676757812,125)" y="0" x="0" id="text-entity-Measure-75e06086-7fb7-506d-b588-b29b5f3e2750-attr-5-name" class="er entityLabel">imageUrl</text><rect height="22" width="22.578125" y="114" x="162.56173706054688" class="er attributeBoxOdd"/><text style="dominant-baseline: middle; font-size: 10.2px;" transform="translate(167.56173706054688,125)" y="0" x="0" id="text-entity-Measure-75e06086-7fb7-506d-b588-b29b5f3e2750-attr-5-comment" class="er entityLabel"/><rect height="22" width="69.84768676757812" y="136" x="0" class="er attributeBoxEven"/><text style="dominant-baseline: middle; font-size: 10.2px;" transform="translate(5,147)" y="0" x="0" id="text-entity-Measure-75e06086-7fb7-506d-b588-b29b5f3e2750-attr-6-type" class="er entityLabel">String</text><rect height="22" width="92.71405029296875" y="136" x="69.84768676757812" class="er attributeBoxEven"/><text style="dominant-baseline: middle; font-size: 10.2px;" transform="translate(74.84768676757812,147)" y="0" x="0" id="text-entity-Measure-75e06086-7fb7-506d-b588-b29b5f3e2750-attr-6-name" class="er entityLabel">measureUuid</text><rect height="22" width="22.578125" y="136" x="162.56173706054688" class="er attributeBoxEven"/><text style="dominant-baseline: middle; font-size: 10.2px;" transform="translate(167.56173706054688,147)" y="0" x="0" id="text-entity-Measure-75e06086-7fb7-506d-b588-b29b5f3e2750-attr-6-comment" class="er entityLabel"/><rect height="22" width="69.84768676757812" y="158" x="0" class="er attributeBoxOdd"/><text style="dominant-baseline: middle; font-size: 10.2px;" transform="translate(5,169)" y="0" x="0" id="text-entity-Measure-75e06086-7fb7-506d-b588-b29b5f3e2750-attr-7-type" class="er entityLabel">Boolean</text><rect height="22" width="92.71405029296875" y="158" x="69.84768676757812" class="er attributeBoxOdd"/><text style="dominant-baseline: middle; font-size: 10.2px;" transform="translate(74.84768676757812,169)" y="0" x="0" id="text-entity-Measure-75e06086-7fb7-506d-b588-b29b5f3e2750-attr-7-name" class="er entityLabel">hasConfirmed</text><rect height="22" width="22.578125" y="158" x="162.56173706054688" class="er attributeBoxOdd"/><text style="dominant-baseline: middle; font-size: 10.2px;" transform="translate(167.56173706054688,169)" y="0" x="0" id="text-entity-Measure-75e06086-7fb7-506d-b588-b29b5f3e2750-attr-7-comment" class="er entityLabel"/><rect height="22" width="69.84768676757812" y="180" x="0" class="er attributeBoxEven"/><text style="dominant-baseline: middle; font-size: 10.2px;" transform="translate(5,191)" y="0" x="0" id="text-entity-Measure-75e06086-7fb7-506d-b588-b29b5f3e2750-attr-8-type" class="er entityLabel">DateTime</text><rect height="22" width="92.71405029296875" y="180" x="69.84768676757812" class="er attributeBoxEven"/><text style="dominant-baseline: middle; font-size: 10.2px;" transform="translate(74.84768676757812,191)" y="0" x="0" id="text-entity-Measure-75e06086-7fb7-506d-b588-b29b5f3e2750-attr-8-name" class="er entityLabel">createdAt</text><rect height="22" width="22.578125" y="180" x="162.56173706054688" class="er attributeBoxEven"/><text style="dominant-baseline: middle; font-size: 10.2px;" transform="translate(167.56173706054688,191)" y="0" x="0" id="text-entity-Measure-75e06086-7fb7-506d-b588-b29b5f3e2750-attr-8-comment" class="er entityLabel"/><rect height="22" width="69.84768676757812" y="202" x="0" class="er attributeBoxOdd"/><text style="dominant-baseline: middle; font-size: 10.2px;" transform="translate(5,213)" y="0" x="0" id="text-entity-Measure-75e06086-7fb7-506d-b588-b29b5f3e2750-attr-9-type" class="er entityLabel">DateTime</text><rect height="22" width="92.71405029296875" y="202" x="69.84768676757812" class="er attributeBoxOdd"/><text style="dominant-baseline: middle; font-size: 10.2px;" transform="translate(74.84768676757812,213)" y="0" x="0" id="text-entity-Measure-75e06086-7fb7-506d-b588-b29b5f3e2750-attr-9-name" class="er entityLabel">updatedAt</text><rect height="22" width="22.578125" y="202" x="162.56173706054688" class="er attributeBoxOdd"/><text style="dominant-baseline: middle; font-size: 10.2px;" transform="translate(167.56173706054688,213)" y="0" x="0" id="text-entity-Measure-75e06086-7fb7-506d-b588-b29b5f3e2750-attr-9-comment" class="er entityLabel"/></g><rect height="14" width="50.43359375" y="130.0503692626953" x="45.16571807861328" class="er relationshipLabelBox"/><text style="text-anchor: middle; dominant-baseline: middle; font-size: 12px;" y="137.0503692626953" x="70.38251495361328" id="rel1" class="er relationshipLabel">measures</text><rect height="14" width="51.05859375" y="130.0503692626953" x="129.22816467285156" class="er relationshipLabelBox"/><text style="text-anchor: middle; dominant-baseline: middle; font-size: 12px;" y="137.0503692626953" x="154.75746154785156" id="rel2" class="er relationshipLabel">customer</text><rect height="14" width="104.646484375" y="456" x="60.24675750732422" class="er relationshipLabelBox"/><text style="text-anchor: middle; dominant-baseline: middle; font-size: 12px;" y="463" x="112.56999969482422" id="rel3" class="er relationshipLabel">enum:measureType</text></svg>